<?xml version="1.0" encoding="UTF-8"?>
<!DOCTYPE svg PUBLIC "-//W3C//DTD SVG 1.1//EN" "http://www.w3.org/Graphics/SVG/1.1/DTD/svg11.dtd">
<svg xmlns="http://www.w3.org/2000/svg" version="1.1" width="128px" height="128px" style="shape-rendering:geometricPrecision; text-rendering:geometricPrecision; image-rendering:optimizeQuality; fill-rule:evenodd; clip-rule:evenodd" xmlns:xlink="http://www.w3.org/1999/xlink">
<g><path style="opacity:0.962" fill="#f7f7f7" d="M 70.5,1.5 C 87.1979,3.34664 100.865,10.68 111.5,23.5C 118.894,32.9558 123.56,43.6225 125.5,55.5C 125.5,55.8333 125.5,56.1667 125.5,56.5C 125.5,59.1667 125.5,61.8333 125.5,64.5C 125.328,65.4916 125.662,66.1583 126.5,66.5C 126.5,68.1667 126.5,69.8333 126.5,71.5C 126.167,71.5 125.833,71.5 125.5,71.5C 124.566,72.5676 124.232,73.901 124.5,75.5C 124.5,76.1667 124.5,76.8333 124.5,77.5C 120.916,88.6672 115.249,98.6672 107.5,107.5C 100.774,113.192 93.4408,117.859 85.5,121.5C 84.209,121.263 83.209,121.596 82.5,122.5C 81.2921,123.234 79.9587,123.567 78.5,123.5C 77.0413,123.433 75.7079,123.766 74.5,124.5C 74.1667,124.5 73.8333,124.5 73.5,124.5C 70.7628,124.401 68.0961,124.735 65.5,125.5C 61.8019,125.448 58.1352,125.114 54.5,124.5C 46.6442,124.217 39.3109,121.883 32.5,117.5C 6.66483,100.138 -2.83517,76.1381 4,45.5C 6.45891,37.9155 9.95891,30.9155 14.5,24.5C 17.1379,21.5256 19.8046,18.5256 22.5,15.5C 36.5897,4.31063 52.5897,-0.356036 70.5,1.5 Z M 73.5,9.5 C 75.099,9.23219 76.4324,9.56552 77.5,10.5C 78.1667,13.1667 78.8333,13.1667 79.5,10.5C 81.4214,11.3627 83.4214,12.0293 85.5,12.5C 85.0825,13.2216 84.4158,13.7216 83.5,14C 85.0931,14.9487 86.4264,16.1154 87.5,17.5C 85.9719,17.5173 85.4719,18.184 86,19.5C 87.8446,20.0495 89.3446,21.0495 90.5,22.5C 87.3486,27.1144 88.3486,28.7811 93.5,27.5C 93.5,26.5 93.5,25.5 93.5,24.5C 98.4781,27.7983 102.145,32.1316 104.5,37.5C 101.5,37.5 98.5,37.5 95.5,37.5C 96.0199,31.7632 93.6866,29.7632 88.5,31.5C 83.7563,32.2505 79.5896,34.2505 76,37.5C 75.2357,31.9712 72.9023,27.3045 69,23.5C 68.1841,24.8228 67.0174,25.4894 65.5,25.5C 65.5386,24.2438 65.0386,23.2438 64,22.5C 56.9914,25.825 53.4914,31.4917 53.5,39.5C 52.8333,39.5 52.1667,39.5 51.5,39.5C 51.7135,37.8561 51.3802,36.3561 50.5,35C 47.1786,34.1872 44.1786,32.6872 41.5,30.5C 40.2679,31.1445 38.9346,31.3112 37.5,31C 34.5073,33.589 31.5073,36.089 28.5,38.5C 28.0145,40.7771 28.6812,42.9437 30.5,45C 29.5294,46.2036 28.5294,46.7036 27.5,46.5C 28.1028,50.4902 30.1028,51.8235 33.5,50.5C 34.4345,51.5676 34.7678,52.901 34.5,54.5C 33.8485,55.0906 33.1818,55.7573 32.5,56.5C 28.2607,54.5132 25.2607,55.6798 23.5,60C 24.2524,60.6708 24.5858,61.5041 24.5,62.5C 21.5299,62.7458 20.1966,64.4124 20.5,67.5C 23.4431,67.6465 26.2764,68.3132 29,69.5C 30.4064,68.5862 31.9064,67.9195 33.5,67.5C 35.403,67.7959 37.0697,68.4625 38.5,69.5C 37.9859,70.6246 37.6526,71.7913 37.5,73C 38,73.5 38.5,74 39,74.5C 40.1332,72.7888 41.6332,72.2888 43.5,73C 40.5279,79.1147 36.6945,84.6147 32,89.5C 31.51,90.7932 31.3433,92.1266 31.5,93.5C 34.2871,94.4747 36.9538,94.1413 39.5,92.5C 40.4959,92.5858 41.3292,92.2524 42,91.5C 43.4471,94.2808 45.2804,96.7808 47.5,99C 50.7617,98.4702 53.7617,99.3036 56.5,101.5C 59.1693,103.115 62.1693,104.115 65.5,104.5C 67.1753,104.132 68.1753,103.132 68.5,101.5C 72.6462,99.1006 74.6462,95.4339 74.5,90.5C 77.8153,90.9717 80.1486,92.805 81.5,96C 83.265,96.6397 84.9317,96.4731 86.5,95.5C 88.7868,94.6448 91.1201,94.4782 93.5,95C 95.0368,93.8904 95.7035,92.3904 95.5,90.5C 93.3284,91.2055 91.3284,92.2055 89.5,93.5C 89.5,93.1667 89.5,92.8333 89.5,92.5C 90.404,91.791 90.7373,90.791 90.5,89.5C 91.1667,89.5 91.5,89.1667 91.5,88.5C 92.9305,88.5792 94.2638,88.2458 95.5,87.5C 97.4292,88.3802 99.2626,89.3802 101,90.5C 103.058,89.8883 104.891,88.8883 106.5,87.5C 106.833,87.6667 107.167,87.8333 107.5,88C 105.845,89.4443 105.178,91.2776 105.5,93.5C 101.704,98.2056 97.3708,102.206 92.5,105.5C 85.7467,108.165 79.2467,111.498 73,115.5C 71.699,115.361 70.8656,114.695 70.5,113.5C 71.8333,112.5 71.8333,111.5 70.5,110.5C 72.3442,109.796 72.8442,108.463 72,106.5C 67.8469,105.685 63.6802,106.018 59.5,107.5C 57.8247,107.868 56.8247,108.868 56.5,110.5C 56.0377,111.88 55.0377,112.547 53.5,112.5C 51.432,111.347 49.432,111.347 47.5,112.5C 39.4564,110.225 32.2897,106.225 26,100.5C 25.6174,101.056 25.1174,101.389 24.5,101.5C 23.8333,100.167 22.8333,99.1667 21.5,98.5C 21.4431,97.391 21.1098,96.391 20.5,95.5C 21.9643,96.4054 23.2976,96.4054 24.5,95.5C 20.1753,88.9049 17.6753,81.5716 17,73.5C 16.5348,72.0692 15.7014,70.9025 14.5,70C 15.3313,62.2286 15.998,54.3953 16.5,46.5C 19.085,46.5677 21.4183,47.0677 23.5,48C 23.1235,44.3657 24.1235,40.8657 26.5,37.5C 26.2907,36.914 25.9574,36.414 25.5,36C 27.2932,33.2047 29.4598,30.7047 32,28.5C 32.4523,25.8506 33.2857,23.3506 34.5,21C 40.305,16.6188 46.805,13.7855 54,12.5C 54.49,13.7932 54.6567,15.1266 54.5,16.5C 57.5716,16.1875 60.405,16.8542 63,18.5C 64.301,18.3613 65.1344,17.6946 65.5,16.5C 66.609,16.4431 67.609,16.1098 68.5,15.5C 68.5858,16.4959 68.2524,17.3292 67.5,18C 69.7008,18.8249 71.5341,18.3249 73,16.5C 72.4782,14.1201 72.6448,11.7868 73.5,9.5 Z M 88.5,72.5 C 89.8333,72.5 91.1667,72.5 92.5,72.5C 91.6242,77.7638 89.6242,78.4305 86.5,74.5C 87.2427,73.8182 87.9094,73.1515 88.5,72.5 Z M 111.5,72.5 C 112.782,73.7082 112.782,75.0416 111.5,76.5C 110.374,75.1916 110.374,73.8583 111.5,72.5 Z M 66.5,96.5 C 67.9313,97.7804 68.5979,99.4471 68.5,101.5C 67.8333,101.5 67.1667,101.5 66.5,101.5C 65.9285,100.027 65.9285,98.36 66.5,96.5 Z M 66.5,101.5 C 66.2893,103.424 65.6226,103.757 64.5,102.5C 65.1667,102.167 65.8333,101.833 66.5,101.5 Z"/></g>
<g><path style="opacity:0.008" fill="#00353f" d="M 127.5,0.5 C 127.5,1.16667 127.5,1.83333 127.5,2.5C 126.167,1.83333 126.167,1.16667 127.5,0.5 Z"/></g>
<g><path style="opacity:0.02" fill="#131213" d="M 43.5,-0.5 C 52.8333,-0.5 62.1667,-0.5 71.5,-0.5C 71.1667,0.166667 70.8333,0.833333 70.5,1.5C 52.5897,-0.356036 36.5897,4.31063 22.5,15.5C 21.6457,14.3684 21.6457,13.035 22.5,11.5C 24.1801,8.82569 26.5135,6.82569 29.5,5.5C 34.4412,3.78753 39.1079,1.78753 43.5,-0.5 Z"/></g>
<g><path style="opacity:0.02" fill="#09203c" d="M 71.5,-0.5 C 76.1667,-0.5 80.8333,-0.5 85.5,-0.5C 92.2732,3.06404 98.6066,7.39737 104.5,12.5C 106.139,14.8061 108.139,16.8061 110.5,18.5C 111.272,19.6935 112.272,20.6935 113.5,21.5C 113.5,22.8333 112.833,23.5 111.5,23.5C 100.865,10.68 87.1979,3.34664 70.5,1.5C 70.8333,0.833333 71.1667,0.166667 71.5,-0.5 Z"/></g>
<g><path style="opacity:0.004" fill="#342c03" d="M 102.5,8.5 C 103.833,9.16667 103.833,9.16667 102.5,8.5 Z"/></g>
<g><path style="opacity:0.02" fill="#211a2e" d="M 72.5,8.5 C 71.8333,8.5 71.5,8.83333 71.5,9.5C 71.5654,9.93822 71.3988,10.2716 71,10.5C 70.6667,9.83333 70.3333,9.16667 70,8.5C 69.5045,10.4727 69.3379,12.4727 69.5,14.5C 69.1667,14.5 68.8333,14.5 68.5,14.5C 67.7142,12.2649 66.0476,11.2649 63.5,11.5C 60.9524,11.2649 59.2858,12.2649 58.5,14.5C 57.2993,12.0905 55.6326,10.0905 53.5,8.5C 56.4133,7.75895 59.4133,7.25895 62.5,7C 63,6.5 63.5,6 64,5.5C 66.6771,7.04116 69.5104,8.04116 72.5,8.5 Z"/></g>
<g><path style="opacity:0.005" fill="#333308" d="M 112.5,17.5 C 111.508,17.3284 110.842,17.6618 110.5,18.5C 108.139,16.8061 106.139,14.8061 104.5,12.5C 104.783,11.7109 105.283,11.0442 106,10.5C 108.372,12.7032 110.539,15.0365 112.5,17.5 Z"/></g>
<g><path style="opacity:0.012" fill="#37310e" d="M 77.5,10.5 C 78.1667,10.5 78.8333,10.5 79.5,10.5C 78.8333,13.1667 78.1667,13.1667 77.5,10.5 Z"/></g>
<g><path style="opacity:0.013" fill="#373506" d="M 53.5,8.5 C 55.6326,10.0905 57.2993,12.0905 58.5,14.5C 60.2232,15.807 62.0565,15.807 64,14.5C 64.7172,15.0442 65.2172,15.7109 65.5,16.5C 65.1344,17.6946 64.301,18.3613 63,18.5C 60.405,16.8542 57.5716,16.1875 54.5,16.5C 54.6567,15.1266 54.49,13.7932 54,12.5C 46.805,13.7855 40.305,16.6188 34.5,21C 33.2857,23.3506 32.4523,25.8506 32,28.5C 29.4598,30.7047 27.2932,33.2047 25.5,36C 25.9574,36.414 26.2907,36.914 26.5,37.5C 24.1235,40.8657 23.1235,44.3657 23.5,48C 21.4183,47.0677 19.085,46.5677 16.5,46.5C 15.998,54.3953 15.3313,62.2286 14.5,70C 15.7014,70.9025 16.5348,72.0692 17,73.5C 17.6753,81.5716 20.1753,88.9049 24.5,95.5C 23.2976,96.4054 21.9643,96.4054 20.5,95.5C 19.6595,92.3243 17.9929,89.6576 15.5,87.5C 15.1667,86.1667 14.8333,86.1667 14.5,87.5C 10.9214,81.7599 8.92136,75.4266 8.5,68.5C 9.83333,68.1667 9.83333,67.8333 8.5,67.5C 7.28572,64.796 7.28572,62.1293 8.5,59.5C 9.83333,58.1667 9.83333,56.8333 8.5,55.5C 9.7867,47.9456 12.12,41.279 15.5,35.5C 24.2758,21.0623 36.9425,12.0623 53.5,8.5 Z"/></g>
<g><path style="opacity:0.011" fill="#353006" d="M 71.5,9.5 C 72.1667,9.5 72.8333,9.5 73.5,9.5C 72.6448,11.7868 72.4782,14.1201 73,16.5C 71.5341,18.3249 69.7008,18.8249 67.5,18C 68.2524,17.3292 68.5858,16.4959 68.5,15.5C 69.1667,15.5 69.5,15.1667 69.5,14.5C 69.3379,12.4727 69.5045,10.4727 70,8.5C 70.3333,9.16667 70.6667,9.83333 71,10.5C 71.3988,10.2716 71.5654,9.93822 71.5,9.5 Z"/></g>
<g><path style="opacity:0.571" fill="#e2e0dd" d="M 68.5,14.5 C 68.5,14.8333 68.5,15.1667 68.5,15.5C 67.609,16.1098 66.609,16.4431 65.5,16.5C 65.2172,15.7109 64.7172,15.0442 64,14.5C 62.0565,15.807 60.2232,15.807 58.5,14.5C 59.2858,12.2649 60.9524,11.2649 63.5,11.5C 66.0476,11.2649 67.7142,12.2649 68.5,14.5 Z"/></g>
<g><path style="opacity:0.007" fill="#343500" d="M 79.5,14.5 C 80.7733,15.0768 80.7733,15.7435 79.5,16.5C 78.537,16.0302 78.537,15.3635 79.5,14.5 Z"/></g>
<g><path style="opacity:0.004" fill="#343500" d="M 112.5,17.5 C 113.833,18.1667 113.833,18.1667 112.5,17.5 Z"/></g>
<g><path style="opacity:0.02" fill="#2c1839" d="M 85.5,12.5 C 91.8852,14.6882 97.2185,18.3549 101.5,23.5C 99.0202,22.758 96.6869,21.758 94.5,20.5C 93.609,19.8902 92.609,19.5569 91.5,19.5C 91.1667,19.5 90.8333,19.5 90.5,19.5C 90.5,18.8333 90.1667,18.5 89.5,18.5C 88.5084,18.6716 87.8417,18.3382 87.5,17.5C 86.4264,16.1154 85.0931,14.9487 83.5,14C 84.4158,13.7216 85.0825,13.2216 85.5,12.5 Z"/></g>
<g><path style="opacity:0.008" fill="#343500" d="M 78.5,19.5 C 81.7643,19.7264 82.7643,21.2264 81.5,24C 78.0414,24.1454 77.0414,22.6454 78.5,19.5 Z"/></g>
<g><path style="opacity:0.004" fill="#003540" d="M 124.5,22.5 C 124.897,21.475 125.563,21.3083 126.5,22C 125.906,22.4643 125.239,22.631 124.5,22.5 Z"/></g>
<g><path style="opacity:0.004" fill="#343500" d="M 4.5,22.5 C 5.83333,23.1667 5.83333,23.1667 4.5,22.5 Z"/></g>
<g><path style="opacity:0.006" fill="#343500" d="M 4.5,23.5 C 4.71901,24.675 4.38568,25.675 3.5,26.5C 2.33469,25.1405 2.66803,24.1405 4.5,23.5 Z"/></g>
<g><path style="opacity:0.01" fill="#353304" d="M 22.5,11.5 C 21.6457,13.035 21.6457,14.3684 22.5,15.5C 19.8046,18.5256 17.1379,21.5256 14.5,24.5C 14.631,23.7611 14.4643,23.0944 14,22.5C 7.27635,30.2825 2.94301,39.2825 1,49.5C 0.617425,50.056 0.117425,50.3893 -0.5,50.5C -0.5,49.1667 -0.5,47.8333 -0.5,46.5C 0.833333,45.8333 0.833333,45.1667 -0.5,44.5C -0.5,44.1667 -0.5,43.8333 -0.5,43.5C 2.98759,37.9022 5.82092,31.9022 8,25.5C 13.0324,20.9663 17.8658,16.2996 22.5,11.5 Z"/></g>
<g><path style="opacity:0.009" fill="#112a3c" d="M 87.5,17.5 C 87.8417,18.3382 88.5084,18.6716 89.5,18.5C 90.1667,18.5 90.5,18.8333 90.5,19.5C 90.8333,20.8333 91.1667,20.8333 91.5,19.5C 92.609,19.5569 93.609,19.8902 94.5,20.5C 96.5161,24.5162 99.5161,27.5162 103.5,29.5C 104.219,32.0725 105.219,34.5725 106.5,37C 105.944,37.3826 105.611,37.8826 105.5,38.5C 104.833,38.5 104.5,38.1667 104.5,37.5C 102.145,32.1316 98.4781,27.7983 93.5,24.5C 93.5,25.5 93.5,26.5 93.5,27.5C 88.3486,28.7811 87.3486,27.1144 90.5,22.5C 89.3446,21.0495 87.8446,20.0495 86,19.5C 85.4719,18.184 85.9719,17.5173 87.5,17.5 Z"/></g>
<g><path style="opacity:0.965" fill="#f5f4f4" d="M 65.5,25.5 C 65.5,26.1667 65.5,26.8333 65.5,27.5C 66.5467,33.0202 67.88,38.3536 69.5,43.5C 69.523,45.9267 70.023,48.26 71,50.5C 76.4681,46.0334 81.6347,41.2 86.5,36C 87.745,35.2086 89.0783,34.7086 90.5,34.5C 90.5,35.1667 90.8333,35.5 91.5,35.5C 91.5,35.8333 91.5,36.1667 91.5,36.5C 87.9358,40.6143 84.6025,44.9476 81.5,49.5C 79.6969,51.4813 78.0303,53.648 76.5,56C 82.1667,57.6667 87.8333,59.3333 93.5,61C 94.4061,62.6995 94.7394,64.5328 94.5,66.5C 92.3024,66.8751 90.3024,67.5418 88.5,68.5C 84.3268,69.0436 80.3268,70.2103 76.5,72C 77.7101,73.0391 78.7101,74.2058 79.5,75.5C 81.177,77.5398 82.8437,79.5398 84.5,81.5C 86.0278,84.5716 88.0278,87.2383 90.5,89.5C 90.7373,90.791 90.404,91.791 89.5,92.5C 82.9369,88.1152 76.7702,83.1152 71,77.5C 70.16,80.2017 69.3267,82.8683 68.5,85.5C 68.5,86.1667 68.5,86.8333 68.5,87.5C 67.7659,88.7079 67.4326,90.0413 67.5,91.5C 67.5,91.8333 67.5,92.1667 67.5,92.5C 66.5655,93.5676 66.2322,94.901 66.5,96.5C 65.9285,98.36 65.9285,100.027 66.5,101.5C 65.8333,101.833 65.1667,102.167 64.5,102.5C 63.2502,102.423 62.4169,101.756 62,100.5C 60.1559,92.7903 58.1559,85.1236 56,77.5C 53.8094,78.8334 51.976,80.5 50.5,82.5C 46.8075,85.8617 43.1408,89.1951 39.5,92.5C 38.5,92.5 37.5,92.5 36.5,92.5C 40.2655,85.1632 44.9322,78.3299 50.5,72C 46.598,70.7514 42.598,69.918 38.5,69.5C 37.0697,68.4625 35.403,67.7959 33.5,67.5C 30.5471,66.738 27.8804,65.4047 25.5,63.5C 33.6942,60.6954 42.0275,58.0287 50.5,55.5C 47.1426,51.148 43.8093,46.8147 40.5,42.5C 38.8004,40.7901 37.4671,38.7901 36.5,36.5C 37.325,35.6143 38.325,35.281 39.5,35.5C 43.54,39.5421 47.8733,43.2088 52.5,46.5C 53.4577,47.9616 54.6244,49.2949 56,50.5C 57.9992,42.505 59.9992,34.505 62,26.5C 62.704,24.273 63.8706,23.9397 65.5,25.5 Z"/></g>
<g><path style="opacity:0.02" fill="#1f1312" d="M 65.5,25.5 C 63.8706,23.9397 62.704,24.273 62,26.5C 59.9992,34.505 57.9992,42.505 56,50.5C 54.6244,49.2949 53.4577,47.9616 52.5,46.5C 53.4682,44.3926 53.8016,42.0593 53.5,39.5C 53.4914,31.4917 56.9914,25.825 64,22.5C 65.0386,23.2438 65.5386,24.2438 65.5,25.5 Z"/></g>
<g><path style="opacity:0.02" fill="#0c060f" d="M 94.5,20.5 C 96.6869,21.758 99.0202,22.758 101.5,23.5C 115.689,36.7294 121.356,53.0627 118.5,72.5C 116.926,70.8984 116.259,68.8984 116.5,66.5C 115.5,66.5 114.5,66.5 113.5,66.5C 112.567,63.0733 111.4,59.74 110,56.5C 109.283,57.0442 108.783,57.7109 108.5,58.5C 107.113,56.1234 106.279,53.4568 106,50.5C 105.864,46.3924 105.698,42.3924 105.5,38.5C 105.611,37.8826 105.944,37.3826 106.5,37C 105.219,34.5725 104.219,32.0725 103.5,29.5C 99.5161,27.5162 96.5161,24.5162 94.5,20.5 Z"/></g>
<g><path style="opacity:0.004" fill="#343500" d="M -0.5,31.5 C 0.833333,32.1667 0.833333,32.1667 -0.5,31.5 Z"/></g>
<g><path style="opacity:0.02" fill="#110e0b" d="M 127.5,41.5 C 127.5,42.8333 127.5,44.1667 127.5,45.5C 126.5,45.5 125.5,45.5 124.5,45.5C 124.032,40.5404 122.365,36.0404 119.5,32C 121.745,32.1953 123.578,33.3619 125,35.5C 125.566,37.7226 126.4,39.7226 127.5,41.5 Z"/></g>
<g><path style="opacity:0.016" fill="#253413" d="M 65.5,27.5 C 66.5862,27.62 67.2528,28.2867 67.5,29.5C 68.5708,33.4322 69.9041,37.2655 71.5,41C 70.9444,42.0111 70.2778,42.8444 69.5,43.5C 67.88,38.3536 66.5467,33.0202 65.5,27.5 Z"/></g>
<g><path style="opacity:0.02" fill="#1b1913" d="M 88.5,31.5 C 88.7822,32.7777 89.4489,33.7777 90.5,34.5C 89.0783,34.7086 87.745,35.2086 86.5,36C 81.6347,41.2 76.4681,46.0334 71,50.5C 70.023,48.26 69.523,45.9267 69.5,43.5C 70.2778,42.8444 70.9444,42.0111 71.5,41C 69.9041,37.2655 68.5708,33.4322 67.5,29.5C 67.2528,28.2867 66.5862,27.62 65.5,27.5C 65.5,26.8333 65.5,26.1667 65.5,25.5C 67.0174,25.4894 68.1841,24.8228 69,23.5C 72.9023,27.3045 75.2357,31.9712 76,37.5C 79.5896,34.2505 83.7563,32.2505 88.5,31.5 Z"/></g>
<g><path style="opacity:0.02" fill="#191c45" d="M 51.5,39.5 C 52.1667,39.5 52.8333,39.5 53.5,39.5C 53.8016,42.0593 53.4682,44.3926 52.5,46.5C 47.8733,43.2088 43.54,39.5421 39.5,35.5C 39.4701,34.5028 39.9701,33.8361 41,33.5C 44.1779,35.6623 47.0113,38.1623 49.5,41C 50.816,41.5281 51.4827,41.0281 51.5,39.5 Z"/></g>
<g><path style="opacity:0.02" fill="#242618" d="M 51.5,39.5 C 51.4827,41.0281 50.816,41.5281 49.5,41C 47.0113,38.1623 44.1779,35.6623 41,33.5C 39.9701,33.8361 39.4701,34.5028 39.5,35.5C 38.325,35.281 37.325,35.6143 36.5,36.5C 37.4671,38.7901 38.8004,40.7901 40.5,42.5C 38.5,41.8333 36.5,41.1667 34.5,40.5C 32.4408,39.3536 31.4408,40.1869 31.5,43C 32.3219,45.4716 32.9886,47.9716 33.5,50.5C 30.1028,51.8235 28.1028,50.4902 27.5,46.5C 28.5294,46.7036 29.5294,46.2036 30.5,45C 28.6812,42.9437 28.0145,40.7771 28.5,38.5C 31.5073,36.089 34.5073,33.589 37.5,31C 38.9346,31.3112 40.2679,31.1445 41.5,30.5C 44.1786,32.6872 47.1786,34.1872 50.5,35C 51.3802,36.3561 51.7135,37.8561 51.5,39.5 Z"/></g>
<g><path style="opacity:0.02" fill="#11063c" d="M 34.5,40.5 C 37.3859,43.9949 39.3859,47.9949 40.5,52.5C 38.6957,53.7681 36.6957,54.4348 34.5,54.5C 34.7678,52.901 34.4345,51.5676 33.5,50.5C 32.9886,47.9716 32.3219,45.4716 31.5,43C 31.4408,40.1869 32.4408,39.3536 34.5,40.5 Z"/></g>
<g><path style="opacity:0.02" fill="#120f11" d="M 34.5,40.5 C 36.5,41.1667 38.5,41.8333 40.5,42.5C 43.8093,46.8147 47.1426,51.148 50.5,55.5C 42.0275,58.0287 33.6942,60.6954 25.5,63.5C 24.8333,63.5 24.5,63.1667 24.5,62.5C 24.5858,61.5041 24.2524,60.6708 23.5,60C 25.2607,55.6798 28.2607,54.5132 32.5,56.5C 33.1818,55.7573 33.8485,55.0906 34.5,54.5C 36.6957,54.4348 38.6957,53.7681 40.5,52.5C 39.3859,47.9949 37.3859,43.9949 34.5,40.5 Z"/></g>
<g><path style="opacity:0.968" fill="#f6f6f5" d="M 101.5,41.5 C 105.16,50.1296 106.66,59.1296 106,68.5C 104.937,74.0223 103.27,79.3557 101,84.5C 98.8441,87.0613 96.6774,87.0613 94.5,84.5C 100.678,71.146 101.012,57.646 95.5,44C 96.5072,40.7209 98.5072,39.8875 101.5,41.5 Z"/></g>
<g><path style="opacity:0.016" fill="#27331a" d="M 127.5,35.5 C 127.5,37.5 127.5,39.5 127.5,41.5C 126.4,39.7226 125.566,37.7226 125,35.5C 123.578,33.3619 121.745,32.1953 119.5,32C 122.365,36.0404 124.032,40.5404 124.5,45.5C 125.5,45.5 126.5,45.5 127.5,45.5C 127.5,50.8333 127.5,56.1667 127.5,61.5C 126.596,62.209 126.263,63.209 126.5,64.5C 126.167,64.5 125.833,64.5 125.5,64.5C 125.5,61.8333 125.5,59.1667 125.5,56.5C 126.833,56.1667 126.833,55.8333 125.5,55.5C 123.56,43.6225 118.894,32.9558 111.5,23.5C 112.833,23.5 113.5,22.8333 113.5,21.5C 113.369,20.7611 113.536,20.0944 114,19.5C 118.735,24.639 123.235,29.9723 127.5,35.5 Z"/></g>
<g><path style="opacity:0.039" fill="#140a19" d="M 63.5,44.5 C 64.4767,47.2869 64.81,50.2869 64.5,53.5C 70.3001,54.3006 73.3001,57.634 73.5,63.5C 86.8333,63.8333 86.8333,64.1667 73.5,64.5C 72.7911,69.8757 69.7911,72.8757 64.5,73.5C 64.665,76.8499 64.4983,80.1832 64,83.5C 63.6667,80.5 63.3333,77.5 63,74.5C 57.5701,73.2386 54.4034,69.9052 53.5,64.5C 41.5,64.1667 41.5,63.8333 53.5,63.5C 53.8333,57.1667 57.1667,53.8333 63.5,53.5C 63.5,50.5 63.5,47.5 63.5,44.5 Z"/></g>
<g><path style="opacity:0.948" fill="#f3f3f3" d="M 60.5,57.5 C 69.2437,57.4126 71.5771,61.246 67.5,69C 57.3538,69.8717 55.0205,66.0383 60.5,57.5 Z"/></g>
<g><path style="opacity:0.059" fill="#14091d" d="M 62.5,61.5 C 63.5,61.5 64.5,61.5 65.5,61.5C 65.5,62.8333 65.5,64.1667 65.5,65.5C 64.1667,65.5 62.8333,65.5 61.5,65.5C 61.4326,64.0413 61.7659,62.7079 62.5,61.5 Z"/></g>
<g><path style="opacity:0.013" fill="#3a3803" d="M 127.5,61.5 C 127.5,70.5 127.5,79.5 127.5,88.5C 126.85,92.5035 125.516,96.3368 123.5,100C 124.066,100.995 124.733,101.828 125.5,102.5C 124.89,103.391 124.557,104.391 124.5,105.5C 123.849,106.091 123.182,106.757 122.5,107.5C 121.059,106.696 119.559,106.029 118,105.5C 116.7,106.707 115.2,107.374 113.5,107.5C 113.84,110.144 113.173,112.477 111.5,114.5C 108.893,115.318 106.226,115.818 103.5,116C 100.539,117.879 97.3728,119.379 94,120.5C 93.2352,120.43 92.7352,120.097 92.5,119.5C 95.5046,117.998 98.5046,116.498 101.5,115C 103.418,112.269 105.418,109.769 107.5,107.5C 115.249,98.6672 120.916,88.6672 124.5,77.5C 125.833,76.8333 125.833,76.1667 124.5,75.5C 124.232,73.901 124.566,72.5676 125.5,71.5C 125.833,72.8333 126.167,72.8333 126.5,71.5C 126.5,69.8333 126.5,68.1667 126.5,66.5C 126.5,65.8333 126.5,65.1667 126.5,64.5C 126.263,63.209 126.596,62.209 127.5,61.5 Z"/></g>
<g><path style="opacity:0.016" fill="#332f12" d="M 24.5,62.5 C 24.5,63.1667 24.8333,63.5 25.5,63.5C 27.8804,65.4047 30.5471,66.738 33.5,67.5C 31.9064,67.9195 30.4064,68.5862 29,69.5C 26.2764,68.3132 23.4431,67.6465 20.5,67.5C 20.1966,64.4124 21.5299,62.7458 24.5,62.5 Z"/></g>
<g><path style="opacity:0.014" fill="#363405" d="M 104.5,37.5 C 104.5,38.1667 104.833,38.5 105.5,38.5C 105.698,42.3924 105.864,46.3924 106,50.5C 106.279,53.4568 107.113,56.1234 108.5,58.5C 110.17,61.3063 109.837,63.8063 107.5,66C 108.701,66.9025 109.535,68.0692 110,69.5C 111.401,67.8078 113.234,67.1412 115.5,67.5C 115.071,74.212 113.571,80.5453 111,86.5C 109.629,89.2661 107.796,91.5994 105.5,93.5C 105.178,91.2776 105.845,89.4443 107.5,88C 107.167,87.8333 106.833,87.6667 106.5,87.5C 104.891,88.8883 103.058,89.8883 101,90.5C 99.2626,89.3802 97.4292,88.3802 95.5,87.5C 94.2638,88.2458 92.9305,88.5792 91.5,88.5C 92.5,87.1667 93.5,85.8333 94.5,84.5C 96.6774,87.0613 98.8441,87.0613 101,84.5C 103.27,79.3557 104.937,74.0223 106,68.5C 106.66,59.1296 105.16,50.1296 101.5,41.5C 102.833,40.8333 102.833,40.1667 101.5,39.5C 98.8806,39.2317 96.3806,39.565 94,40.5C 93.8692,43.3712 92.7025,45.7046 90.5,47.5C 92.408,50.0229 92.7414,52.6896 91.5,55.5C 86.8461,56.5275 84.5128,54.5275 84.5,49.5C 83.5,49.5 82.5,49.5 81.5,49.5C 84.6025,44.9476 87.9358,40.6143 91.5,36.5C 92.8333,36.1667 92.8333,35.8333 91.5,35.5C 90.8333,35.5 90.5,35.1667 90.5,34.5C 89.4489,33.7777 88.7822,32.7777 88.5,31.5C 93.6866,29.7632 96.0199,31.7632 95.5,37.5C 98.5,37.5 101.5,37.5 104.5,37.5 Z M 111.5,72.5 C 110.374,73.8583 110.374,75.1916 111.5,76.5C 112.782,75.0416 112.782,73.7082 111.5,72.5 Z"/></g>
<g><path style="opacity:0.02" fill="#181219" d="M 14.5,24.5 C 9.95891,30.9155 6.45891,37.9155 4,45.5C -2.83517,76.1381 6.66483,100.138 32.5,117.5C 30.54,116.862 28.7067,116.862 27,117.5C 22.0604,114.722 17.5604,111.389 13.5,107.5C 12.9565,103.954 10.9565,101.621 7.5,100.5C 7.16843,97.1582 5.66843,94.4915 3,92.5C 1.9662,88.6674 0.799536,85.0007 -0.5,81.5C -0.5,71.1667 -0.5,60.8333 -0.5,50.5C 0.117425,50.3893 0.617425,50.056 1,49.5C 2.94301,39.2825 7.27635,30.2825 14,22.5C 14.4643,23.0944 14.631,23.7611 14.5,24.5 Z"/></g>
<g><path style="opacity:0.029" fill="#1a0d10" d="M 101.5,39.5 C 101.5,40.1667 101.5,40.8333 101.5,41.5C 98.5072,39.8875 96.5072,40.7209 95.5,44C 101.012,57.646 100.678,71.146 94.5,84.5C 93.5,85.8333 92.5,87.1667 91.5,88.5C 91.5,89.1667 91.1667,89.5 90.5,89.5C 88.0278,87.2383 86.0278,84.5716 84.5,81.5C 84.6107,80.8826 84.944,80.3826 85.5,80C 88.941,80.0514 91.7744,78.8847 94,76.5C 94.1686,73.0304 94.3352,69.697 94.5,66.5C 94.7394,64.5328 94.4061,62.6995 93.5,61C 87.8333,59.3333 82.1667,57.6667 76.5,56C 78.0303,53.648 79.6969,51.4813 81.5,49.5C 82.5,49.5 83.5,49.5 84.5,49.5C 84.5128,54.5275 86.8461,56.5275 91.5,55.5C 92.7414,52.6896 92.408,50.0229 90.5,47.5C 92.7025,45.7046 93.8692,43.3712 94,40.5C 96.3806,39.565 98.8806,39.2317 101.5,39.5 Z"/></g>
<g><path style="opacity:0.013" fill="#34340b" d="M 94.5,66.5 C 94.3352,69.697 94.1686,73.0304 94,76.5C 91.7744,78.8847 88.941,80.0514 85.5,80C 84.944,80.3826 84.6107,80.8826 84.5,81.5C 82.8437,79.5398 81.177,77.5398 79.5,75.5C 82.8112,73.0385 86.4778,71.2051 90.5,70C 90.8333,69.6667 91.1667,69.3333 91.5,69C 90.552,68.5172 89.552,68.3505 88.5,68.5C 90.3024,67.5418 92.3024,66.8751 94.5,66.5 Z M 88.5,72.5 C 87.9094,73.1515 87.2427,73.8182 86.5,74.5C 89.6242,78.4305 91.6242,77.7638 92.5,72.5C 91.1667,72.5 89.8333,72.5 88.5,72.5 Z"/></g>
<g><path style="opacity:0.013" fill="#333500" d="M 21.5,72.5 C 25.2738,74.9424 29.1072,74.9424 33,72.5C 33.3333,73.5 33.6667,74.5 34,75.5C 34.6667,74.1667 35.3333,74.1667 36,75.5C 36.5608,78.2981 35.3941,80.1314 32.5,81C 28.9069,80.9666 25.4069,81.1333 22,81.5C 18.8601,78.6109 18.6935,75.6109 21.5,72.5 Z"/></g>
<g><path style="opacity:0.02" fill="#1c101d" d="M 88.5,68.5 C 89.552,68.3505 90.552,68.5172 91.5,69C 91.1667,69.3333 90.8333,69.6667 90.5,70C 86.4778,71.2051 82.8112,73.0385 79.5,75.5C 78.7101,74.2058 77.7101,73.0391 76.5,72C 80.3268,70.2103 84.3268,69.0436 88.5,68.5 Z"/></g>
<g><path style="opacity:0.02" fill="#200e1e" d="M 89.5,92.5 C 89.5,92.8333 89.5,93.1667 89.5,93.5C 87.9731,93.427 86.9731,94.0937 86.5,95.5C 84.9317,96.4731 83.265,96.6397 81.5,96C 80.1486,92.805 77.8153,90.9717 74.5,90.5C 71.6,90.5922 69.9333,89.2589 69.5,86.5C 69.5,85.8333 69.1667,85.5 68.5,85.5C 69.3267,82.8683 70.16,80.2017 71,77.5C 76.7702,83.1152 82.9369,88.1152 89.5,92.5 Z"/></g>
<g><path style="opacity:0.02" fill="#140e12" d="M 64.5,102.5 C 65.6226,103.757 66.2893,103.424 66.5,101.5C 67.1667,101.5 67.8333,101.5 68.5,101.5C 68.1753,103.132 67.1753,104.132 65.5,104.5C 62.1693,104.115 59.1693,103.115 56.5,101.5C 57.0967,101.265 57.4301,100.765 57.5,100C 55.8765,95.6895 54.7098,91.1895 54,86.5C 52.6012,85.7734 51.1012,85.2734 49.5,85C 50.2524,84.3292 50.5858,83.4959 50.5,82.5C 51.976,80.5 53.8094,78.8334 56,77.5C 58.1559,85.1236 60.1559,92.7903 62,100.5C 62.4169,101.756 63.2502,102.423 64.5,102.5 Z M 66.5,101.5 C 66.2893,103.424 65.6226,103.757 64.5,102.5C 65.1667,102.167 65.8333,101.833 66.5,101.5 Z"/></g>
<g><path style="opacity:0.008" fill="#31310f" d="M 38.5,69.5 C 42.598,69.918 46.598,70.7514 50.5,72C 44.9322,78.3299 40.2655,85.1632 36.5,92.5C 37.5,92.5 38.5,92.5 39.5,92.5C 36.9538,94.1413 34.2871,94.4747 31.5,93.5C 31.3433,92.1266 31.51,90.7932 32,89.5C 36.6945,84.6147 40.5279,79.1147 43.5,73C 41.6332,72.2888 40.1332,72.7888 39,74.5C 38.5,74 38,73.5 37.5,73C 37.6526,71.7913 37.9859,70.6246 38.5,69.5 Z"/></g>
<g><path style="opacity:0.015" fill="#333504" d="M 50.5,82.5 C 50.5858,83.4959 50.2524,84.3292 49.5,85C 51.1012,85.2734 52.6012,85.7734 54,86.5C 54.7098,91.1895 55.8765,95.6895 57.5,100C 57.4301,100.765 57.0967,101.265 56.5,101.5C 53.7617,99.3036 50.7617,98.4702 47.5,99C 45.2804,96.7808 43.4471,94.2808 42,91.5C 41.3292,92.2524 40.4959,92.5858 39.5,92.5C 43.1408,89.1951 46.8075,85.8617 50.5,82.5 Z"/></g>
<g><path style="opacity:0.013" fill="#393904" d="M 69.5,86.5 C 69.9333,89.2589 71.6,90.5922 74.5,90.5C 74.6462,95.4339 72.6462,99.1006 68.5,101.5C 68.5979,99.4471 67.9313,97.7804 66.5,96.5C 66.2322,94.901 66.5655,93.5676 67.5,92.5C 68.8333,92.1667 68.8333,91.8333 67.5,91.5C 67.4326,90.0413 67.7659,88.7079 68.5,87.5C 69.1667,87.5 69.5,87.1667 69.5,86.5 Z"/></g>
<g><path style="opacity:0.007" fill="#353401" d="M 86.5,95.5 C 86.9731,94.0937 87.9731,93.427 89.5,93.5C 91.3284,92.2055 93.3284,91.2055 95.5,90.5C 95.7035,92.3904 95.0368,93.8904 93.5,95C 91.1201,94.4782 88.7868,94.6448 86.5,95.5 Z"/></g>
<g><path style="opacity:0.008" fill="#275a5d" d="M 14.5,87.5 C 14.8333,87.5 15.1667,87.5 15.5,87.5C 17.9929,89.6576 19.6595,92.3243 20.5,95.5C 21.1098,96.391 21.4431,97.391 21.5,98.5C 17.9905,95.6423 15.6571,91.9757 14.5,87.5 Z"/></g>
<g><path style="opacity:0.011" fill="#043035" d="M -0.5,81.5 C 0.799536,85.0007 1.9662,88.6674 3,92.5C 5.66843,94.4915 7.16843,97.1582 7.5,100.5C 10.9565,101.621 12.9565,103.954 13.5,107.5C 10.1817,105.619 6.84833,103.619 3.5,101.5C 4.02527,100.808 4.69194,100.308 5.5,100C 3.76897,97.7994 1.76897,95.9661 -0.5,94.5C -0.5,90.1667 -0.5,85.8333 -0.5,81.5 Z"/></g>
<g><path style="opacity:0.024" fill="#2a1f0f" d="M 118.5,72.5 C 115.655,86.8847 108.322,98.218 96.5,106.5C 96.6495,105.448 96.4828,104.448 96,103.5C 94.8873,104.305 93.7206,104.972 92.5,105.5C 97.3708,102.206 101.704,98.2056 105.5,93.5C 107.796,91.5994 109.629,89.2661 111,86.5C 113.571,80.5453 115.071,74.212 115.5,67.5C 113.234,67.1412 111.401,67.8078 110,69.5C 109.535,68.0692 108.701,66.9025 107.5,66C 109.837,63.8063 110.17,61.3063 108.5,58.5C 108.783,57.7109 109.283,57.0442 110,56.5C 111.4,59.74 112.567,63.0733 113.5,66.5C 114.5,66.5 115.5,66.5 116.5,66.5C 116.259,68.8984 116.926,70.8984 118.5,72.5 Z"/></g>
<g><path style="opacity:0.009" fill="#343500" d="M 78.5,96.5 C 81.0171,97.8927 82.6837,99.8927 83.5,102.5C 81.4086,102.318 79.4086,102.652 77.5,103.5C 76.1544,100.9 76.4877,98.5671 78.5,96.5 Z"/></g>
<g><path style="opacity:0.013" fill="#05343f" d="M 125.5,102.5 C 126.167,102.5 126.833,102.5 127.5,102.5C 127.5,104.5 127.5,106.5 127.5,108.5C 125.5,108.5 124.5,107.5 124.5,105.5C 124.557,104.391 124.89,103.391 125.5,102.5 Z"/></g>
<g><path style="opacity:0.02" fill="#171418" d="M 96.5,106.5 C 87.9582,113.799 77.9582,117.799 66.5,118.5C 67.7971,116.839 69.1304,115.172 70.5,113.5C 70.8656,114.695 71.699,115.361 73,115.5C 79.2467,111.498 85.7467,108.165 92.5,105.5C 93.7206,104.972 94.8873,104.305 96,103.5C 96.4828,104.448 96.6495,105.448 96.5,106.5 Z"/></g>
<g><path style="opacity:0.02" fill="#0b1d3b" d="M 47.5,112.5 C 47.7911,113.649 48.6244,114.316 50,114.5C 53.5399,114.963 57.0399,115.63 60.5,116.5C 59.3984,117.176 58.3984,117.842 57.5,118.5C 44.3518,116.761 33.3518,111.094 24.5,101.5C 25.1174,101.389 25.6174,101.056 26,100.5C 32.2897,106.225 39.4564,110.225 47.5,112.5 Z"/></g>
<g><path style="opacity:0.02" fill="#1d320c" d="M 70.5,110.5 C 70.1667,110.5 69.8333,110.5 69.5,110.5C 66.5,109.167 63.5,109.167 60.5,110.5C 59.8333,110.833 59.1667,111.167 58.5,111.5C 58.1583,110.662 57.4916,110.328 56.5,110.5C 56.8247,108.868 57.8247,107.868 59.5,107.5C 63.6802,106.018 67.8469,105.685 72,106.5C 72.8442,108.463 72.3442,109.796 70.5,110.5 Z"/></g>
<g><path style="opacity:0.913" fill="#f5f4f4" d="M 68.5,111.5 C 68.106,113.71 66.7727,115.043 64.5,115.5C 64.5,113.833 64.5,112.167 64.5,110.5C 65.9587,110.433 67.2921,110.766 68.5,111.5 Z"/></g>
<g><path style="opacity:0.012" fill="#251a54" d="M 69.5,110.5 C 69.8333,110.5 70.1667,110.5 70.5,110.5C 71.8333,111.5 71.8333,112.5 70.5,113.5C 69.1304,115.172 67.7971,116.839 66.5,118.5C 66.1667,118.5 65.8333,118.5 65.5,118.5C 64.8902,117.609 64.5569,116.609 64.5,115.5C 66.7727,115.043 68.106,113.71 68.5,111.5C 68.5,110.833 68.8333,110.5 69.5,110.5 Z"/></g>
<g><path style="opacity:0.004" fill="#764f17" d="M 107.5,107.5 C 105.418,109.769 103.418,112.269 101.5,115C 98.5046,116.498 95.5046,117.998 92.5,119.5C 89.5918,120.159 89.2584,120.993 91.5,122C 89.6711,122.273 88.1711,123.107 87,124.5C 86.7679,123.263 86.2679,122.263 85.5,121.5C 93.4408,117.859 100.774,113.192 107.5,107.5 Z"/></g>
<g><path style="opacity:0.004" fill="#003541" d="M 117.5,114.5 C 118.833,115.167 118.833,115.167 117.5,114.5 Z"/></g>
<g><path style="opacity:0.035" fill="#1c2520" d="M 60.5,110.5 C 63.5,109.167 66.5,109.167 69.5,110.5C 68.8333,110.5 68.5,110.833 68.5,111.5C 67.2921,110.766 65.9587,110.433 64.5,110.5C 64.5,112.167 64.5,113.833 64.5,115.5C 64.5569,116.609 64.8902,117.609 65.5,118.5C 64.8485,119.091 64.1818,119.757 63.5,120.5C 61.8211,118.896 59.8211,118.229 57.5,118.5C 58.3984,117.842 59.3984,117.176 60.5,116.5C 57.0399,115.63 53.5399,114.963 50,114.5C 48.6244,114.316 47.7911,113.649 47.5,112.5C 49.432,111.347 51.432,111.347 53.5,112.5C 55.0377,112.547 56.0377,111.88 56.5,110.5C 57.4916,110.328 58.1583,110.662 58.5,111.5C 59.0483,114.084 60.715,115.084 63.5,114.5C 63.5,113.167 63.5,111.833 63.5,110.5C 62.5,110.5 61.5,110.5 60.5,110.5 Z"/></g>
<g><path style="opacity:0.965" fill="#ebeaea" d="M 60.5,110.5 C 61.5,110.5 62.5,110.5 63.5,110.5C 63.5,111.833 63.5,113.167 63.5,114.5C 60.715,115.084 59.0483,114.084 58.5,111.5C 59.1667,111.167 59.8333,110.833 60.5,110.5 Z"/></g>
<g><path style="opacity:0.004" fill="#514822" d="M 85.5,121.5 C 84.779,123.382 83.779,123.715 82.5,122.5C 83.209,121.596 84.209,121.263 85.5,121.5 Z"/></g>
<g><path style="opacity:0.004" fill="#003540" d="M 115.5,122.5 C 116.289,122.783 116.956,123.283 117.5,124C 116.184,124.528 115.517,124.028 115.5,122.5 Z"/></g>
<g><path style="opacity:0.004" fill="#d96f83" d="M 54.5,124.5 C 58.1352,125.114 61.8019,125.448 65.5,125.5C 65.5,125.833 65.5,126.167 65.5,126.5C 62.4816,126.665 59.4816,126.498 56.5,126C 55.5842,125.722 54.9175,125.222 54.5,124.5 Z"/></g>
<g><path style="opacity:0.004" fill="#b79865" d="M 73.5,124.5 C 71.0392,125.531 68.3725,126.198 65.5,126.5C 65.5,126.167 65.5,125.833 65.5,125.5C 68.0961,124.735 70.7628,124.401 73.5,124.5 Z"/></g>
<g><path style="opacity:0.012" fill="#203424" d="M 78.5,123.5 C 80.4931,124.472 80.8264,125.805 79.5,127.5C 77.1667,127.5 74.8333,127.5 72.5,127.5C 73.5511,126.778 74.2178,125.778 74.5,124.5C 75.7079,123.766 77.0413,123.433 78.5,123.5 Z"/></g>
</svg>
